<?xml version="1.0" standalone="no"?>
<!DOCTYPE svg PUBLIC "-//W3C//DTD SVG 1.1//EN" "http://www.w3.org/Graphics/SVG/1.1/DTD/svg11.dtd" >
<svg xmlns="http://www.w3.org/2000/svg">
<metadata>Generated by IcoMoon</metadata>
<defs>
<font id="vaultcons" horiz-adv-x="1024">
<font-face units-per-em="1024" ascent="960" descent="-64" />
<missing-glyph horiz-adv-x="1024" />
<glyph unicode="&#x20;" horiz-adv-x="512" d="" />
<glyph unicode="&#xe600;" glyph-name="arrow-down" d="M120 764l392-392 392 392 120-120-512-512-512 512 120 120z" />
<glyph unicode="&#xe601;" glyph-name="arrow-left" d="M828 71.552l-120-120-512 512 512 512 120-120-392-392 392-392z" />
<glyph unicode="&#xe602;" glyph-name="arrow-right" d="M196 840l120 120 512-512-512-512-120 120 392 392-392 392z" />
<glyph unicode="&#xe603;" glyph-name="arrow-up" d="M120 193.056l-120 120 512 512 512-512-120-120-392 392-392-392z" />
<glyph unicode="&#xe604;" glyph-name="check" d="M906.72 872.096l-581.792-581.792-208.992 209.024-115.936-116.864 324.928-324.96 699.072 699.072z" />
<glyph unicode="&#xe605;" glyph-name="circle-arrow-right" d="M512 960c70.688 0 137.184-13.344 199.488-40 62.304-26.688 116.672-63.2 163.008-109.504 46.368-46.336 82.848-100.672 109.504-163.008 26.624-62.336 40-128.832 40-199.488 0-70.688-13.376-137.184-40-199.488-26.656-62.336-63.136-116.672-109.504-163.008-46.304-46.368-100.672-82.848-163.008-109.504-62.304-26.688-128.8-40-199.488-40-70.656 0-137.184 13.312-199.488 40-62.336 26.656-116.672 63.136-163.008 109.504-46.368 46.304-82.848 100.672-109.472 163.008-26.688 62.304-40.032 128.8-40.032 199.488 0 70.656 13.344 137.152 40 199.488s63.136 116.672 109.472 163.008c46.368 46.304 100.704 82.816 163.040 109.504 62.304 26.656 128.832 40 199.488 40zM512 32c57.312 0 111.328 10.816 162.016 32.512 50.656 21.632 94.848 51.328 132.512 88.992 37.696 37.664 67.328 81.824 88.992 132.512 21.632 50.624 32.48 104.608 32.48 161.984 0 57.344-10.848 111.328-32.512 161.984-21.696 50.656-51.328 94.816-88.992 132.512-37.664 37.664-81.856 67.328-132.512 88.992s-104.672 32.512-161.984 32.512c-57.344 0-111.328-10.816-161.984-32.48-50.688-21.696-94.848-51.36-132.512-89.024-37.696-37.696-67.328-81.856-88.992-132.512s-32.512-104.64-32.512-161.984c0-57.376 10.848-111.36 32.512-162.016 21.664-50.688 51.328-94.848 88.992-132.512 37.664-37.696 81.856-67.36 132.544-88.992 50.624-21.664 104.608-32.48 161.952-32.48zM548.992 448l-194.016 195.008 90.016 89.984 286.016-284.992-285.984-284.992-90.016 90.016 193.984 194.976z" />
<glyph unicode="&#xe606;" glyph-name="close" d="M1024 856.928l-408.928-408.928 408.928-408.928-103.072-103.072-408.928 408.896-408.928-408.896-103.072 103.072 408.928 408.928-408.928 408.928 103.072 103.072 408.928-408.896 408.928 408.896 103.072-103.072z" />
<glyph unicode="&#xe607;" glyph-name="cogs" d="M364 237.984c2.656-5.344 5.152-10.848 7.488-16.512 2.336-5.696 4.544-11.488 6.528-17.504l69.984-11.968v-64l-70.016-12c-1.984-6.016-4.192-11.872-6.528-17.504-2.336-5.696-4.832-11.2-7.488-16.512l40.992-58.016-44.992-44.992-57.984 40.992c-5.344-2.688-10.848-5.184-16.512-7.488-5.696-2.336-11.488-4.512-17.504-6.496l-11.968-69.984h-64l-12 70.016c-5.984 2.016-11.872 4.16-17.504 6.496-5.664 2.304-11.168 4.8-16.512 7.488l-57.984-40.992-44.992 44.992 40.992 58.016c-2.656 5.312-5.184 10.784-7.52 16.48-2.336 5.632-4.48 11.488-6.496 17.504l-69.984 12v64l70.016 12c2.016 6.016 4.16 11.808 6.496 17.504 2.336 5.664 4.832 11.168 7.488 16.512l-40.992 57.984 44.992 44.992 58.016-40.992c5.344 2.656 10.816 5.152 16.512 7.488 5.632 2.336 11.52 4.512 17.504 6.496l11.968 70.016h64l12-70.016c6.016-2.016 11.84-4.16 17.504-6.496 5.632-2.336 11.136-4.832 16.512-7.488l57.984 40.992 44.992-44.992-40.992-58.016zM224 72.864c24.512 0 45.152 8.384 61.952 25.184 16.736 16.768 25.184 37.44 25.184 61.952s-8.448 45.12-25.184 61.952c-16.832 16.736-37.44 25.184-61.952 25.184-24.48 0-45.152-8.448-61.92-25.184-16.8-16.832-25.216-37.44-25.216-61.952s8.384-45.152 25.184-61.952c16.8-16.8 37.472-25.184 61.952-25.184zM1024 576l-67.008-12c-0.672-4-1.504-8-2.496-12s-1.824-8-2.496-12l56.992-36.992-24-59.008-67.008 13.984c-2.016-3.328-4.192-6.656-6.496-9.984-2.304-3.36-4.512-6.656-6.496-9.984l39.008-56-45.984-46.016-56 39.008c-3.328-2.016-6.688-4.16-10.016-6.496s-6.688-4.512-10.016-6.496l14.016-67.008-59.008-24-36.992 56.992c-4-0.672-8-1.504-12-2.496s-8-1.856-12-2.496l-12-67.008h-64l-12 67.008c-4 0.672-8 1.504-12 2.496s-8 1.824-12 2.496l-36.992-56.992-59.008 24 14.016 67.008c-3.328 2.016-6.656 4.16-10.016 6.496s-6.656 4.512-9.984 6.496l-56-39.008-46.016 45.984 39.008 56c-2.016 3.328-4.16 6.624-6.528 9.984-2.336 3.328-4.48 6.656-6.528 9.984l-67.008-13.984-24 59.008 56.992 36.992c-0.672 4-1.504 8-2.496 12s-1.856 8-2.496 12l-66.944 12.032v64l67.008 12c0.672 4 1.504 8 2.496 12s1.824 8 2.496 12l-56.992 36.992 24 59.008 67.008-14.016c2.016 3.328 4.16 6.656 6.528 10.016s4.48 6.656 6.528 10.016l-39.072 55.968 46.016 46.016 56-39.008c3.328 2.016 6.656 4.16 9.984 6.496s6.656 4.512 10.016 6.496l-14.016 67.008 59.008 24 36.992-56.992c4 0.672 8 1.504 12 2.528 4 0.992 8 1.792 12 2.496l12 66.976h64l12-67.008c4-0.672 8-1.472 12-2.496 4-0.992 8-1.824 12-2.496l36.992 56.992 59.008-24-14.016-67.008c3.328-2.016 6.688-4.16 10.016-6.496s6.656-4.48 10.016-6.496l56 39.008 45.984-46.016-39.008-56c2.016-3.328 4.192-6.656 6.496-9.984s4.512-6.656 6.496-10.016l67.008 14.016 24-59.008-56.992-36.992c0.672-4 1.504-8 2.496-12s1.824-8 2.496-12l67.008-12v-64zM672 412.992c54.24 0 100.32 18.944 138.176 56.768 37.952 37.92 56.8 83.968 56.8 138.24 0 54.208-18.88 100.288-56.8 138.176-37.856 37.92-83.936 56.832-138.176 56.832s-100.32-18.912-138.208-56.832c-37.856-37.856-56.8-83.936-56.8-138.176 0-54.272 18.944-100.32 56.8-138.24 37.888-37.824 83.968-56.768 138.208-56.768z" />
<glyph unicode="&#xe608;" glyph-name="copy" d="M274.944 740.768v-804.768h693.344v804.768h-693.344zM865.12 50.208h-487.040v576.352h487.040v-576.352zM697.056 960h-641.344v-868.64h103.136v754.432h538.208z" />
<glyph unicode="&#xe609;" glyph-name="eye" d="M823.552 700.704c92.928-63.904 159.744-148.128 200.448-252.672-40.672-104.608-107.488-188.832-200.448-252.736-92.992-63.904-196.8-95.872-311.552-95.872s-218.592 31.968-311.552 95.872-159.776 148.128-200.448 252.736c40.672 104.576 107.456 188.768 200.448 252.672s196.8 95.904 311.552 95.904c114.752 0 218.56-31.968 311.552-95.904zM676.512 283.52c45.76 45.76 68.64 100.608 68.64 164.512 0 63.84-22.88 118.72-68.64 164.512-45.76 45.696-100.64 68.608-164.512 68.608-63.904 0-118.752-22.912-164.512-68.64-45.76-45.792-68.64-100.672-68.64-164.512 0-63.904 22.88-118.752 68.64-164.512 45.76-45.792 100.608-68.64 164.512-68.64 63.872 0.064 118.752 22.912 164.512 68.672zM610.016 546.048c27.584-27.616 41.408-60.288 41.408-98.016 0-37.824-13.824-70.464-41.408-98.016-27.584-27.616-60.288-41.408-98.016-41.408-37.792 0-70.464 13.792-98.048 41.408-27.616 27.552-41.408 60.224-41.408 98.016 0 37.76 13.792 70.4 41.408 98.016 27.584 27.552 60.256 41.376 98.048 41.376 37.76 0 70.432-13.792 98.016-41.376z" />
<glyph unicode="&#xe60a;" glyph-name="fb" d="M0 960v-1024h547.008v396.512h-134.144v155.168h134.144v113.12c0 65.312 17.888 115.424 53.664 150.464 36.544 35.744 84.704 53.632 144.608 53.632 51.328 0 91.008-1.952 118.976-5.824v-137.632l-81.664-1.152c-29.536 0-49.76-6.272-60.64-18.688-10.112-12.416-15.168-31.104-15.168-56v-97.952h152.768l-20.992-155.168h-131.776v-396.48h317.216v1024h-1024z" />
<glyph unicode="&#xe60b;" glyph-name="floppy" d="M826.176 960h-820.288v-1024h1012.224v832.032l-191.936 191.968zM512 877.024h134.016v-187.968h-134.016v187.968zM770.016 19.008h-466.080v372.864h466.080v-372.864zM938.016 19.008h-93.984v445.792h-630.048v-445.792h-128v858.016h128v-256.608h508.064v256.608h28.064l187.936-187.968v-670.048z" />
<glyph unicode="&#xe60c;" glyph-name="info" d="M512 960c-282.752 0-512-229.248-512-512s229.248-512 512-512c282.752 0 512 229.248 512 512s-229.248 512-512 512zM512 38.208c-226.304 0-409.792 183.488-409.792 409.792s183.488 409.792 409.792 409.792 409.792-183.488 409.792-409.792-183.488-409.792-409.792-409.792zM446.976 541.856h130.016v-415.424h-130.016v415.424zM446.976 763.264h130.016v-128.512h-130.016v128.512z" />
<glyph unicode="&#xe60d;" glyph-name="io" d="M291.744 958.528l292.576-312.448h-220.32v-551.424h-144.544v551.392h-220.32l292.608 312.48zM1024.832 249.952l-292.544-312.448-292.608 312.448h220.288v551.424h144.576v-551.424h220.288z" />
<glyph unicode="&#xe60e;" glyph-name="mail" d="M512.032 323.68l-512.032 256v-461.056h1024v461.024zM1024 692.832v85.76h-1024v-85.76l512.032-255.968z" />
<glyph unicode="&#xe60f;" glyph-name="no-eye" d="M512 796.608c-114.752 0-218.592-31.968-311.552-95.872s-159.776-148.128-200.448-252.704c39.168-100.704 102.816-182.368 190.496-245.376l595.84 521.536c-83.264 48.224-174.656 72.416-274.336 72.416zM860.64 672.832l-591.616-517.792c74.688-36.992 155.648-55.616 242.976-55.616 114.752 0 218.56 31.968 311.552 95.872 92.928 63.904 159.744 148.16 200.448 252.736-35.072 90.048-89.568 164.928-163.36 224.8z" />
<glyph unicode="&#xe610;" glyph-name="on" d="M842.688 837.344c120.864-103.136 181.312-232.896 181.312-389.344 0-142.272-49.792-263.136-149.344-362.656-99.52-99.584-220.48-149.344-362.656-149.344-142.24 0-263.136 49.76-362.656 149.344-99.584 99.52-149.344 220.416-149.344 362.656 0 156.416 60.448 286.176 181.344 389.312l80-80c-97.792-79.968-146.688-183.104-146.688-309.312 0-110.272 38.656-204 116-281.344 77.344-77.376 171.104-116.032 281.344-116.032 110.208 0 204 38.656 281.344 116.032 77.344 77.312 116 171.072 116 281.344 0 126.208-48.896 228.416-146.688 306.656l80.032 82.688zM568 392h-112v568h112v-568z" />
<glyph unicode="&#xe611;" glyph-name="pen" d="M627.2 768l208-208-611.2-608h-208v208l611.2 608zM892.8 620.8l-208 208 102.4 99.2c9.6 9.6 22.4 16 38.4 16s28.8-6.4 38.4-16l128-128c9.6-9.6 16-22.4 16-38.4s-6.4-28.8-16-38.4l-99.2-102.4z" />
<glyph unicode="&#xe612;" glyph-name="refresh" d="M512 177.696v0c-149.312 0-270.304 121.024-270.304 270.304 0 79.552 34.592 150.848 89.28 200.32l-98.464 95.328c-78.496-74.272-127.744-179.072-127.744-295.648 0-224.896 182.304-407.232 407.232-407.232v0-104.736l232.288 187.328-232.288 185.184v-130.848zM512 855.232v104.768l-232.352-187.36 232.352-185.216v130.88c149.28 0 270.304-121.024 270.304-270.304 0-86.304-40.64-163.040-103.616-212.544l117.76-78.272c86.592 74.656 122.784 167.52 122.784 290.816 0 224.896-182.336 407.232-407.232 407.232z" />
<glyph unicode="&#xe613;" glyph-name="safe" d="M61.44 111.2l408.224-175.2v600.8l-408.224 175.2zM554.336 536.8v-600.8l408.224 175.2v600.8zM512.064 960l-419.456-183.328 419.456-183.392 419.456 183.392z" />
<glyph unicode="&#xe614;" glyph-name="trash" d="M992 812.672h-255.136l-25.504 147.328h-405.344l-25.472-147.328h-248.544v-156h120v-720.672h720v720.672h120v156zM354.016 49.312h-80v517.824h80v-517.824zM548.672 18.304h-80v548.832h80v-548.832zM743.36 49.312h-80v517.824h80v-517.824zM388.672 869.824l238.016 0.416 8.832-57.536h-253.664l6.816 57.12z" />
<glyph unicode="&#xe615;" glyph-name="wand" d="M0 640h128v-64h-128v64zM256 768l-128 128h-64v-64l128-128 64 64zM64 384v-64h64l128 128-64 64-128-128zM374.016 713.984c-9.344 9.344-20.672 14.016-34.016 14.016s-24.64-4.672-33.984-14.016l-60-60c-9.344-9.312-14.016-20.64-14.016-33.984s4.672-24.672 14.016-34.016l636-636c9.312-9.312 20.64-13.984 33.984-13.984 13.312 0 24.672 4.672 34.016 14.016l60 60c9.312 9.312 13.984 20.64 13.984 33.984 0 13.312-4.672 24.64-14.016 34.016l-635.968 635.968zM288 608l64 64 192-192-64-64-192 192zM320 960h64v-128h-64v128zM320 384h64v-128h-64v128zM640 832v64h-64l-128-128 64-64 128 128zM576 640h128v-64h-128v64z" />
<glyph unicode="&#xe616;" glyph-name="youtube" d="M0 842.592v-753.28h1024v753.28h-1024zM704.992 435.040l-292-182.976c-5.344-4-12-6.016-20-6.016-5.344 0-11.008 1.632-16.992 4.992-12.672 6.656-19.008 17.312-19.008 32v366.016c0 14.016 6.336 24.672 19.008 32 12.672 6.688 24.992 6.336 36.992-0.992l292-183.008c11.328-6.688 16.992-17.024 16.992-30.976 0.032-14.016-5.664-24.384-16.992-31.040z" />
<glyph unicode="&#xe900;" glyph-name="folder" d="M830.048 457.344h-443.968c-32.96 0-67.776-8.384-104.48-25.184s-65.92-37.952-87.68-63.424l-181.888-214.528c0 1.216-0.32 3.392-0.928 6.528 0 3.136 0 5.248 0 6.528v512.064c0 32.32 11.808 60.32 35.424 83.968 23.008 23.616 51.008 35.424 84 35.424h170.688c32.32 0 60.32-11.808 83.968-35.424 23.616-23.648 35.424-51.648 35.424-83.968v-17.728h290.080c32.32 0 60.32-11.52 83.936-34.496 23.616-23.648 35.424-51.936 35.424-84.896v-84.864zM996.128 323.968l-179.136-210.816c-15.52-18.048-36.992-33.6-64.32-46.624-27.36-12.48-52.864-18.688-76.512-18.688h-580.16c-11.84 0-22.4 2.496-31.712 7.456-9.344 4.352-14.016 11.776-14.016 22.368 0 11.232 5.28 23.008 15.872 35.456l179.104 210.816c15.552 18.016 36.992 33.568 64.352 46.624 28 12.448 53.472 18.656 76.48 18.656h580.16c11.808 0 22.72-2.496 32.672-7.456 9.344-4.384 14.016-11.808 14.016-22.368-0.032-11.168-5.6-22.976-16.8-35.424z" />
<glyph unicode="&#xe901;" glyph-name="search" d="M1024 23.808l-87.808-87.808-291.072 291.008v46.656l-16.448 16.48c-69.568-60.384-151.936-90.56-247.072-90.56-106.176 0-196.288 36.576-270.432 109.824-74.080 73.152-111.168 162.816-111.168 268.992 0 106.144 37.088 196.288 111.168 270.432 74.144 74.080 164.256 111.168 270.432 111.168 106.144 0 195.808-37.088 269.024-111.168 73.216-74.144 109.824-164.288 109.824-270.432 0-95.168-30.176-177.536-90.56-247.072l16.48-16.448h46.656l290.976-291.072zM568.288 391.712c51.264 51.232 76.832 113.44 76.832 186.656s-25.6 135.424-76.832 186.688c-51.296 51.264-113.472 76.864-186.656 76.864-73.248 0-135.456-25.6-186.688-76.864-51.264-51.264-76.864-113.472-76.864-186.688s25.6-135.456 76.864-186.656c51.232-51.296 113.44-76.832 186.688-76.832 73.152 0 135.36 25.568 186.656 76.832z" />
<glyph unicode="&#xe902;" glyph-name="menu" d="M1024 832v-85.344c0-11.552-4.256-21.568-12.672-30.016s-18.464-12.64-30.016-12.64h-938.656c-11.552 0-21.536 4.224-29.984 12.672-8.48 8.448-12.672 18.432-12.672 29.984v85.344c0 11.552 4.192 21.568 12.672 30.016 8.448 8.416 18.432 12.64 29.984 12.64h938.656c11.552 0 21.568-4.224 30.016-12.672s12.672-18.432 12.672-29.984zM1024 490.656v-85.344c0-11.552-4.256-21.568-12.672-30.016s-18.432-12.672-30.016-12.672h-938.656c-11.552 0-21.568 4.224-30.016 12.672-8.448 8.48-12.64 18.496-12.64 30.048v85.344c0 11.552 4.192 21.568 12.672 30.016 8.448 8.448 18.432 12.672 30.016 12.672h938.656c11.552 0 21.568-4.224 30.016-12.672s12.64-18.464 12.64-30.048zM1024 149.344v-85.344c0-11.552-4.256-21.568-12.672-30.016s-18.432-12.672-30.016-12.672h-938.656c-11.552 0-21.568 4.224-30.016 12.672s-12.64 18.464-12.64 30.016v85.344c0 11.52 4.192 21.568 12.672 30.016 8.448 8.416 18.432 12.64 29.984 12.64h938.656c11.552 0 21.568-4.224 30.016-12.672s12.672-18.464 12.672-29.984z" />
<glyph unicode="&#xe903;" glyph-name="plus" d="M584.192 375.84v-439.84h-144.352v439.84h-439.84v144.32h439.84v439.84h144.352v-439.84h439.808v-144.32h-439.808z" />
<glyph unicode="&#xe904;" glyph-name="comment" d="M953.6 316.8c-44.8-57.6-108.8-99.2-185.6-134.4-80-32-163.2-48-256-48-25.6 0-54.4 3.2-83.2 6.4-76.8-67.2-163.2-112-262.4-137.6-19.2-6.4-41.6-9.6-64-12.8-6.4 0-12.8 0-16 6.4-6.4 3.2-9.6 9.6-9.6 16 0 0-3.2 3.2 0 6.4 0 3.2 3.2 6.4 3.2 6.4s0 3.2 3.2 6.4l9.6 19.2c3.2 3.2 9.6 9.6 19.2 19.2s16 16 19.2 22.4c3.2 3.2 9.6 12.8 16 22.4 9.6 9.6 12.8 19.2 19.2 28.8 3.2 9.6 9.6 19.2 16 35.2 6.4 12.8 9.6 28.8 16 44.8-60.8 32-105.6 73.6-140.8 124.8s-51.2 102.4-51.2 160c0 48 12.8 96 41.6 140.8 25.6 44.8 64 83.2 108.8 118.4 44.8 32 99.2 57.6 163.2 76.8s131.2 28.8 198.4 28.8c92.8 0 179.2-16 256-48 80-32 140.8-76.8 185.6-134.4s70.4-118.4 70.4-185.6c-6.4-70.4-28.8-131.2-76.8-188.8z" />
</font>
</defs>
</svg>
